<svg id="call-answer" xmlns="http://www.w3.org/2000/svg" width="29.013" height="29.013" viewBox="0 0 29.013 29.013">
  <g id="Group_173" data-name="Group 173" transform="translate(0 0)">
    <g id="Group_172" data-name="Group 172" transform="translate(0 0)">
      <path id="Path_444" data-name="Path 444" d="M28.362,23.341,23.882,18.85a2.332,2.332,0,0,0-3.294.062L18.33,21.174l-.445-.248a22.465,22.465,0,0,1-5.43-3.936A22.639,22.639,0,0,1,8.52,11.538c-.084-.151-.164-.3-.243-.436L9.793,9.586l.745-.747a2.343,2.343,0,0,0,.06-3.3L6.117,1.045a2.33,2.33,0,0,0-3.294.062L1.56,2.38l.035.034A7.323,7.323,0,0,0,.554,4.254,7.641,7.641,0,0,0,.091,6.12c-.592,4.916,1.65,9.409,7.732,15.505,8.408,8.427,15.184,7.79,15.476,7.759a7.557,7.557,0,0,0,1.867-.47A7.273,7.273,0,0,0,27,27.876l.028.025L28.3,26.645A2.347,2.347,0,0,0,28.362,23.341Z" transform="translate(0 -0.394)" fill="#662e80"/>
    </g>
  </g>
</svg>
