<svg id="email-filled-closed-envelope" xmlns="http://www.w3.org/2000/svg" width="29.013" height="20.309" viewBox="0 0 29.013 20.309">
  <path id="Path_449" data-name="Path 449" d="M14.543,113.542h.006a1.08,1.08,0,0,0,.61-.187l.047-.032.032-.021.553-.479,13.191-11.394a.153.153,0,0,0-.123-.066H.153a.145.145,0,0,0-.095.036l13.8,11.907A1.05,1.05,0,0,0,14.543,113.542ZM0,102.977v16.89l9.887-8.36Zm19.137,8.587,9.876,8.308V103.033ZM16,114.275a2.27,2.27,0,0,1-2.9,0l-2.264-1.955L0,121.481v.029a.161.161,0,0,0,.155.161h28.7a.16.16,0,0,0,.153-.162v-.027l-10.823-9.1Z" transform="translate(0 -101.362)" fill="#662e80"/>
</svg>
