<svg id="Group_2936" data-name="Group 2936" xmlns="http://www.w3.org/2000/svg" width="94.853" height="31.771" viewBox="0 0 94.853 31.771">
  <path id="Path_1402" data-name="Path 1402" d="M314.537,85.126a.836.836,0,0,0,.592-1.429L300.665,69.235l14.465-14.463a.836.836,0,0,0-1.183-1.183L298.892,68.645a.836.836,0,0,0,0,1.183l15.055,15.055A.836.836,0,0,0,314.537,85.126Z" transform="translate(-298.646 -53.355)" fill="#662e80"/>
  <path id="Path_1403" data-name="Path 1403" d="M1.976,246.886h90.9c1.091,0,1.976-.374,1.976-.836s-.885-.836-1.976-.836H1.976c-1.091,0-1.976.375-1.976.836S.885,246.886,1.976,246.886Z" transform="translate(0 -230.169)" fill="#662e80"/>
</svg>
