<svg id="home" xmlns="http://www.w3.org/2000/svg" width="29.013" height="23.21" viewBox="0 0 29.013 23.21">
  <g id="Group_175" data-name="Group 175" transform="translate(0 0)">
    <path id="Path_450" data-name="Path 450" d="M76.042,120.939l-10.326,8.575a.247.247,0,0,1-.009.054.249.249,0,0,0-.009.054v8.683a1.116,1.116,0,0,0,.341.814,1.1,1.1,0,0,0,.808.344h6.9v-6.947h4.6v6.947h6.9a1.1,1.1,0,0,0,.808-.344,1.116,1.116,0,0,0,.342-.814v-8.683a.257.257,0,0,0-.018-.108Z" transform="translate(-61.535 -116.254)" fill="#662e80"/>
    <path id="Path_451" data-name="Path 451" d="M28.812,58.3l-3.941-3.292V47.627a.564.564,0,0,0-.162-.416.557.557,0,0,0-.414-.163H20.841a.56.56,0,0,0-.414.163.566.566,0,0,0-.162.416v3.528l-4.391-3.691a2.223,2.223,0,0,0-2.735,0L.2,58.3a.526.526,0,0,0-.2.389.588.588,0,0,0,.126.425l1.116,1.339a.613.613,0,0,0,.378.2.666.666,0,0,0,.432-.127L14.506,50.088,26.959,60.526a.553.553,0,0,0,.378.126h.054a.614.614,0,0,0,.378-.2l1.116-1.339a.588.588,0,0,0,.125-.426A.528.528,0,0,0,28.812,58.3Z" transform="translate(0.001 -46.994)" fill="#662e80"/>
  </g>
</svg>
