<svg xmlns="http://www.w3.org/2000/svg" width="44.718" height="61.25" viewBox="0 0 44.718 61.25">
  <g id="Group_1" data-name="Group 1" transform="translate(0)">
    <g id="Group_1-2" data-name="Group 1" transform="translate(16.968 37.319)">
      <path id="Path_1" data-name="Path 1" d="M132.562,268.9l-1.716,1.669-1.289-1.321,1.719-1.67a2.414,2.414,0,0,0-1.116-.128,2.387,2.387,0,0,0-2.215,3.088l-.754.752-.423.423-.251.25-1.729,1.729-.961.963a1.938,1.938,0,1,0,1.623,1.552l.867-.867h0l1.729-1.728.671-.671h0l.79-.79a2.551,2.551,0,0,0,3.053-3.247Zm-9.022,8.332a.673.673,0,1,1,.674-.674A.671.671,0,0,1,123.54,277.235Z" transform="translate(-121.599 -267.434)" fill="#eddfd8"/>
    </g>
    <g id="Group_2" data-name="Group 2" transform="translate(16.688 37.364)">
      <path id="Path_2" data-name="Path 2" d="M129.711,276.153l-2.718-2.932h0l-1.527-1.645v0l-2.563-2.763a.339.339,0,0,0-.156-.121l-2.716-.911a.34.34,0,0,0-.331.068l0,0a.332.332,0,0,0-.089.327l.7,2.776a.342.342,0,0,0,.106.166l2.65,2.856v0l1.527,1.645v0l2.63,2.837a.863.863,0,0,0,1.224.066l1.245-1.15A.865.865,0,0,0,129.711,276.153Zm-8.911-5.631-.353-1.388.6-.553,1.359.455Zm2.03-.391a.113.113,0,0,1,.006-.16l.091-.087a.117.117,0,0,1,.162,0l1.952,2.106-.251.25Zm3.738,3.511,1.46,1.575a.115.115,0,0,1-.007.163l-.091.084a.112.112,0,0,1-.16-.007l-1.451-1.566Zm2.487,3.373-.8.741a.559.559,0,0,1-.787-.042l-.474-.511,1.6-1.488.474.512A.558.558,0,0,1,129.055,277.015Z" transform="translate(-119.592 -267.759)" fill="#eddfd8"/>
      <path id="Path_3" data-name="Path 3" d="M158.618,299.758l-.25.25-1.529-1.648.251-.25Z" transform="translate(-151.641 -293.875)" fill="#eddfd8"/>
    </g>
    <path id="Path_4" data-name="Path 4" d="M220.661,275.013a.722.722,0,1,1,.722-.722A.722.722,0,0,1,220.661,275.013Z" transform="translate(-189.248 -235.394)" fill="#eddfd8"/>
    <circle id="Ellipse_1" data-name="Ellipse 1" cx="0.722" cy="0.722" r="0.722" transform="translate(28.743 34.611)" fill="#eddfd8"/>
    <circle id="Ellipse_2" data-name="Ellipse 2" cx="0.722" cy="0.722" r="0.722" transform="translate(14.933 34.323)" fill="#eddfd8"/>
    <circle id="Ellipse_3" data-name="Ellipse 3" cx="0.722" cy="0.722" r="0.722" transform="translate(12.592 37.818)" fill="#eddfd8"/>
    <path id="Path_5" data-name="Path 5" d="M88.787,298.5a1.1,1.1,0,0,1-.349.006l-.253.409-.375-.145.1-.472a1.155,1.155,0,0,1-.25-.242l-.47.11-.16-.369.405-.263a1.157,1.157,0,0,1-.005-.349l-.415-.245.148-.375.476.1a1.133,1.133,0,0,1,.242-.251l-.12-.47.371-.16.268.405a1.259,1.259,0,0,1,.346-.005l.25-.418.375.147-.1.479a1.16,1.16,0,0,1,.25.241l.471-.121.162.371-.407.267a1.205,1.205,0,0,1,.009.348l.412.253-.147.377-.473-.1a1.2,1.2,0,0,1-.241.252l.112.468-.37.161Z" transform="translate(-74.873 -254.492)" fill="#eddfd8"/>
    <path id="Path_6" data-name="Path 6" d="M102.56,336.124a.722.722,0,1,1,.722-.722A.723.723,0,0,1,102.56,336.124Z" transform="translate(-87.627 -287.977)" fill="#eddfd8"/>
    <path id="Path_7" data-name="Path 7" d="M120.906,359.664a.722.722,0,1,1,.722-.722A.723.723,0,0,1,120.906,359.664Z" transform="translate(-103.413 -308.232)" fill="#eddfd8"/>
    <g id="Group_3" data-name="Group 3" transform="translate(0)">
      <path id="Path_8" data-name="Path 8" d="M36.716,72.214a7.063,7.063,0,0,0,1.493.288.472.472,0,0,0-.047.207l.028.769a.488.488,0,0,0,.5.466l.79-.03a.484.484,0,0,0,.47-.5l-.028-.769a.455.455,0,0,0-.054-.2,7.087,7.087,0,0,0,1.462-.38.449.449,0,0,0,.053.191l.365.68a.491.491,0,0,0,.657.2l.7-.369a.484.484,0,0,0,.2-.652l-.365-.677a.47.47,0,0,0-.127-.151,7.051,7.051,0,0,0,1.14-.971.49.49,0,0,0,.128.139l.628.451a.489.489,0,0,0,.678-.106l.467-.637a.481.481,0,0,0-.108-.673l-.627-.449a.456.456,0,0,0-.165-.075,6.914,6.914,0,0,0,.592-1.369.469.469,0,0,0,.162.063l.763.134a.493.493,0,0,0,.566-.389l.136-.775a.486.486,0,0,0-.394-.56l-.764-.133a.444.444,0,0,0-.169.005,6.854,6.854,0,0,0-.071-1.488.535.535,0,0,0,.161-.013l.745-.213a.487.487,0,0,0,.335-.6l-.22-.755a.49.49,0,0,0-.6-.332l-.747.214a.459.459,0,0,0-.141.072,6.9,6.9,0,0,0-.726-1.3.507.507,0,0,0,.135-.078l.577-.515a.479.479,0,0,0,.037-.678l-.534-.585a.49.49,0,0,0-.685-.036l-.575.514a.452.452,0,0,0-.089.12,7.173,7.173,0,0,0-1.11-.788c-.041-.023-.083-.04-.126-.063a.477.477,0,0,0,.085-.127l.292-.714a.483.483,0,0,0-.267-.626l-.736-.294a.49.49,0,0,0-.635.265l-.29.714a.477.477,0,0,0-.03.154,6.844,6.844,0,0,0-.992-.2.453.453,0,0,0,.031-.15v-.768a.485.485,0,0,0-.487-.482H38.4a.487.487,0,0,0-.487.482v.768a.477.477,0,0,0,.033.162,7.11,7.11,0,0,0-1.463.339.424.424,0,0,0-.043-.164l-.339-.691a.49.49,0,0,0-.651-.221l-.712.344a.484.484,0,0,0-.226.645l.341.69a.489.489,0,0,0,.108.14,6.839,6.839,0,0,0-1.161.943.516.516,0,0,0-.12-.14l-.613-.472a.487.487,0,0,0-.68.083l-.49.619a.481.481,0,0,0,.083.677l.612.472a.463.463,0,0,0,.169.084c-.017.03-.038.058-.056.089a6.871,6.871,0,0,0-.574,1.262.459.459,0,0,0-.177-.077l-.759-.16a.49.49,0,0,0-.578.37l-.164.77a.482.482,0,0,0,.375.571l.757.161a.493.493,0,0,0,.207-.005,6.9,6.9,0,0,0,.034,1.5.462.462,0,0,0-.214,0l-.751.186a.482.482,0,0,0-.356.584l.191.762a.489.489,0,0,0,.589.353l.754-.187a.492.492,0,0,0,.189-.1,7.035,7.035,0,0,0,.7,1.339.465.465,0,0,0-.2.094l-.594.492a.482.482,0,0,0-.061.679l.511.6a.492.492,0,0,0,.685.059l.595-.493a.47.47,0,0,0,.129-.179,7.043,7.043,0,0,0,1.214.909.464.464,0,0,0-.136.172l-.318.7a.484.484,0,0,0,.246.636l.726.32a.491.491,0,0,0,.642-.244l.316-.7A.457.457,0,0,0,36.716,72.214Zm5.507-9.427a4.39,4.39,0,0,1,0,5.567L40.6,66.735a2.118,2.118,0,0,0,.326-1.5,2.147,2.147,0,0,0-.322-.834Zm-3.41-1.621a4.385,4.385,0,0,1,2.785,1L39.98,63.777a2.119,2.119,0,0,0-2.335,0l-1.616-1.617A4.38,4.38,0,0,1,38.813,61.166Zm1.018,5.142a1.258,1.258,0,1,1-1.215-1.98,1.181,1.181,0,0,1,.2-.016,1.266,1.266,0,0,1,1.24,1.063A1.24,1.24,0,0,1,39.831,66.308ZM35.4,68.354a4.392,4.392,0,0,1,0-5.567l1.621,1.621a2.105,2.105,0,0,0,0,2.329Zm.625.626,1.615-1.615a2.13,2.13,0,0,0,1.165.349,2.137,2.137,0,0,0,1.17-.35L41.6,68.98a4.393,4.393,0,0,1-5.569,0Z" transform="translate(-26.192 -49.215)" fill="none"/>
      <path id="Path_9" data-name="Path 9" d="M110.054,20.477a16.666,16.666,0,0,1,7.531-8.8c.2-.118.413-.222.616-.336a14.781,14.781,0,0,0-16.271.014c.195.108.4.208.592.322A16.67,16.67,0,0,1,110.054,20.477Z" transform="translate(-87.706 -7.665)" fill="none"/>
      <path id="Path_10" data-name="Path 10" d="M150.679,192.325a13.073,13.073,0,0,0,1.553-1.413,2.859,2.859,0,0,0-.445-.23l0,.009a2.887,2.887,0,0,0-2.2,0l0-.01a2.884,2.884,0,0,0-.454.236A13.071,13.071,0,0,0,150.679,192.325Z" transform="translate(-128.323 -163.894)" fill="none"/>
      <path id="Path_11" data-name="Path 11" d="M142.087,145.484a5.768,5.768,0,0,1,1.7-.013l.665-1.086a7.038,7.038,0,0,1,1.111.339h0c.072.029.141.063.211.094l-2.8-3.389-2.8,3.385a7,7,0,0,1,1.23-.408Z" transform="translate(-120.616 -121.695)" fill="none"/>
      <path id="Path_12" data-name="Path 12" d="M186.356,66.073l-.764-.133a.46.46,0,0,0-.169.005,6.873,6.873,0,0,0-.072-1.488.508.508,0,0,0,.161-.012l.746-.214a.485.485,0,0,0,.334-.595l-.22-.755a.491.491,0,0,0-.6-.332l-.746.213a.493.493,0,0,0-.142.072,6.9,6.9,0,0,0-.726-1.3.551.551,0,0,0,.136-.078l.577-.515a.48.48,0,0,0,.037-.678l-.535-.585a.49.49,0,0,0-.685-.037l-.576.514a.483.483,0,0,0-.089.121,7.211,7.211,0,0,0-1.109-.788c-.042-.023-.084-.04-.126-.063a.5.5,0,0,0,.085-.127l.292-.714a.484.484,0,0,0-.267-.627l-.736-.293a.491.491,0,0,0-.635.264l-.289.713a.461.461,0,0,0-.031.154,6.806,6.806,0,0,0-.991-.2.46.46,0,0,0,.03-.15v-.768a.484.484,0,0,0-.486-.482h-.792a.485.485,0,0,0-.486.482v.768a.449.449,0,0,0,.033.161,7.215,7.215,0,0,0-1.464.339.426.426,0,0,0-.043-.164l-.339-.69a.49.49,0,0,0-.651-.222l-.712.344a.485.485,0,0,0-.225.645l.341.69a.48.48,0,0,0,.109.14,6.886,6.886,0,0,0-1.161.942.529.529,0,0,0-.121-.139l-.613-.473a.488.488,0,0,0-.68.083l-.49.619a.482.482,0,0,0,.083.677l.612.472a.481.481,0,0,0,.169.085c-.017.03-.038.057-.056.088a6.925,6.925,0,0,0-.574,1.262.462.462,0,0,0-.177-.076l-.759-.159a.488.488,0,0,0-.578.37l-.164.77a.483.483,0,0,0,.375.572l.757.16a.48.48,0,0,0,.207,0,6.9,6.9,0,0,0,.034,1.5.473.473,0,0,0-.214,0l-.751.187a.482.482,0,0,0-.356.583l.191.762a.489.489,0,0,0,.589.353l.754-.187a.49.49,0,0,0,.189-.1,7.025,7.025,0,0,0,.7,1.339.475.475,0,0,0-.2.094l-.594.493a.481.481,0,0,0-.061.678l.511.6a.492.492,0,0,0,.685.06l.595-.493a.484.484,0,0,0,.129-.179,6.986,6.986,0,0,0,1.214.908.471.471,0,0,0-.136.172l-.318.7a.485.485,0,0,0,.246.636l.726.319a.49.49,0,0,0,.642-.244l.316-.7a.456.456,0,0,0,.037-.212,7.013,7.013,0,0,0,1.493.288.463.463,0,0,0-.046.208l.028.769a.486.486,0,0,0,.5.466l.79-.03a.484.484,0,0,0,.471-.495l-.028-.77a.481.481,0,0,0-.054-.2,7.05,7.05,0,0,0,1.463-.38.44.44,0,0,0,.053.191l.364.68a.492.492,0,0,0,.658.2l.7-.369a.485.485,0,0,0,.2-.653l-.365-.677a.471.471,0,0,0-.128-.151,6.973,6.973,0,0,0,1.141-.972.509.509,0,0,0,.128.14l.628.45a.49.49,0,0,0,.679-.105l.466-.638a.481.481,0,0,0-.108-.673l-.628-.448a.455.455,0,0,0-.164-.076,6.867,6.867,0,0,0,.592-1.369.482.482,0,0,0,.163.064l.762.134a.492.492,0,0,0,.566-.39l.136-.774A.485.485,0,0,0,186.356,66.073Zm-7.973-4.907a4.394,4.394,0,0,1,3.347,1.549h-6.7A4.4,4.4,0,0,1,178.383,61.166Zm0,8.809a4.393,4.393,0,0,1-3.348-1.549h6.694A4.392,4.392,0,0,1,178.383,69.975Zm3.93-2.43h-7.863A4.36,4.36,0,0,1,174,66.012h8.765A4.36,4.36,0,0,1,182.313,67.545ZM174,65.13a4.369,4.369,0,0,1,.45-1.534h7.864a4.368,4.368,0,0,1,.45,1.534Z" transform="translate(-146.284 -49.215)" fill="none"/>
      <path id="Path_13" data-name="Path 13" d="M139.712,392.165l0,0h0Z" transform="translate(-120.212 -337.441)" fill="none"/>
      <path id="Path_14" data-name="Path 14" d="M177.9,223.312Z" transform="translate(-153.063 -192.133)" fill="none"/>
      <path id="Path_15" data-name="Path 15" d="M143.238,217.437a13.213,13.213,0,0,0-2.75.288l0,.012-.01,0a3.058,3.058,0,0,0,1.659,1.661l0-.009a2.887,2.887,0,0,0,2.2,0l0,.01A3.116,3.116,0,0,0,146,217.742l-.009,0,0-.014h0A13.213,13.213,0,0,0,143.238,217.437Z" transform="translate(-120.879 -187.095)" fill="none"/>
      <path id="Path_16" data-name="Path 16" d="M93.288,230.154l0,.009h0l0,0c-.067.168-.142.334-.222.5-.014.028-.024.056-.038.084-.062.122-.133.241-.2.36-.037.063-.069.129-.108.192h0l-1.241-.28a5.75,5.75,0,0,1-1.194,1.21l.3,1.237h0v0a6.978,6.978,0,0,1-2.235.943l-.679-1.076a5.767,5.767,0,0,1-1.7.013l-.665,1.086a7.033,7.033,0,0,1-1.111-.339h0l0,0c-.167-.066-.332-.141-.494-.221-.029-.014-.058-.025-.087-.04-.121-.061-.238-.131-.356-.2-.065-.038-.131-.07-.2-.11h0l.28-1.241a5.752,5.752,0,0,1-1.21-1.194l-1.237.3h0a6.969,6.969,0,0,1-.63-1.237,10.614,10.614,0,0,0-5.4,8.789c0,5.658,4.444,11.2,7.9,14.658l.144.13c.155-.21.06-.075,0,0l0,0a4.817,4.817,0,0,1,.974-.956c-.328.244-.007,0,.02-.017l-.444-1.987,1.564-.632,1.077,1.74a4.791,4.791,0,0,1,1.449.012l1.086-1.72,1.559.659-.471,1.986c.361.265.022.025.022.025a5.271,5.271,0,0,1,.881.888l.152-.137a37.761,37.761,0,0,0,4.633-5.542,5.271,5.271,0,0,1-.695-.714l-.964.245a5.393,5.393,0,0,1-.761-1.736l.835-.543a4.431,4.431,0,0,1-.029-1.329l-.855-.508a5.465,5.465,0,0,1,.689-1.766l.974.2a4.562,4.562,0,0,1,.922-.957l-.246-.963a5.433,5.433,0,0,1,1.737-.761l.542.834a8.106,8.106,0,0,1,1.068-.034c.035-.362.054-.725.054-1.089A10.613,10.613,0,0,0,93.288,230.154Z" transform="translate(-64.405 -198.033)" fill="none"/>
      <path id="Path_17" data-name="Path 17" d="M145.452,399.618a2.916,2.916,0,0,0-2.4,1.257l0,0c1.392,1.264,2.371,2,2.394,2.02.023-.017,1-.756,2.394-2.02l.008-.007A2.916,2.916,0,0,0,145.452,399.618Z" transform="translate(-123.089 -343.854)" fill="none"/>
      <path id="Path_18" data-name="Path 18" d="M139.587,392.194l-.02.017.02-.015Z" transform="translate(-120.091 -337.466)" fill="none"/>
      <path id="Path_19" data-name="Path 19" d="M160.209,423.123l0,0,0,0Z" transform="translate(-137.845 -364.076)" fill="none"/>
      <path id="Path_20" data-name="Path 20" d="M226.087,318.872a2.342,2.342,0,0,0,.624,1.589,18.217,18.217,0,0,0,1.637-3.937A2.35,2.35,0,0,0,226.087,318.872Z" transform="translate(-194.538 -272.355)" fill="none"/>
      <path id="Path_21" data-name="Path 21" d="M61.173,100.376a2.129,2.129,0,0,1,.327-1.5l-1.621-1.621a4.392,4.392,0,0,0,0,5.567l1.617-1.617A2.137,2.137,0,0,1,61.173,100.376Z" transform="translate(-50.668 -83.685)" fill="#eddfd8"/>
      <path id="Path_22" data-name="Path 22" d="M76.064,131.667l-1.619-1.617a2.124,2.124,0,0,1-2.335,0L70.5,131.667a4.393,4.393,0,0,0,5.569,0Z" transform="translate(-60.658 -111.902)" fill="#eddfd8"/>
      <path id="Path_23" data-name="Path 23" d="M209.377,85.641a4.4,4.4,0,0,0-3.349,1.549h6.7A4.394,4.394,0,0,0,209.377,85.641Z" transform="translate(-177.278 -73.69)" fill="#eddfd8"/>
      <path id="Path_24" data-name="Path 24" d="M72.944,87.929a2.114,2.114,0,0,1,1.5.323l1.617-1.616a4.393,4.393,0,0,0-5.569,0l1.616,1.617A2.117,2.117,0,0,1,72.944,87.929Z" transform="translate(-60.658 -73.69)" fill="#eddfd8"/>
      <path id="Path_25" data-name="Path 25" d="M103.589,99.706a2.118,2.118,0,0,1-.326,1.5l1.621,1.619a4.39,4.39,0,0,0,0-5.567l-1.617,1.615A2.147,2.147,0,0,1,103.589,99.706Z" transform="translate(-88.853 -83.685)" fill="#eddfd8"/>
      <path id="Path_26" data-name="Path 26" d="M82.69,108.182a1.18,1.18,0,0,0-.2.016,1.258,1.258,0,1,0,1.215,1.98,1.24,1.24,0,0,0,.223-.933A1.266,1.266,0,0,0,82.69,108.182Z" transform="translate(-70.068 -93.086)" fill="#eddfd8"/>
      <path id="Path_27" data-name="Path 27" d="M199.063,103.055a4.368,4.368,0,0,0-.45,1.534h8.765a4.368,4.368,0,0,0-.45-1.534Z" transform="translate(-170.898 -88.674)" fill="#eddfd8"/>
      <path id="Path_28" data-name="Path 28" d="M209.382,139.217a4.392,4.392,0,0,0,3.346-1.549h-6.694A4.393,4.393,0,0,0,209.382,139.217Z" transform="translate(-177.283 -118.457)" fill="#eddfd8"/>
      <path id="Path_29" data-name="Path 29" d="M263,356.551q.235-.264.463-.531a4.518,4.518,0,0,1-.487.437Z" transform="translate(-226.275 -306.339)" fill="#fff"/>
      <path id="Path_30" data-name="Path 30" d="M266.7,352.772c.137-.16.272-.321.406-.482h0A4.572,4.572,0,0,1,266.7,352.772Z" transform="translate(-229.481 -303.129)" fill="#fff"/>
      <path id="Path_31" data-name="Path 31" d="M199.064,121.9h7.863a4.36,4.36,0,0,0,.451-1.533h-8.765A4.36,4.36,0,0,0,199.064,121.9Z" transform="translate(-170.898 -103.569)" fill="#eddfd8"/>
      <path id="Path_32" data-name="Path 32" d="M209.1,296.032l-.542-.834a5.433,5.433,0,0,0-1.737.761l.246.963a4.564,4.564,0,0,0-.922.957l-.974-.2a5.464,5.464,0,0,0-.689,1.766l.855.508a4.432,4.432,0,0,0,.029,1.329l-.835.543a5.393,5.393,0,0,0,.761,1.736l.964-.245a5.269,5.269,0,0,0,.695.714c.416-.62.81-1.259,1.171-1.915a2.345,2.345,0,0,1,1.637-3.937,12.972,12.972,0,0,0,.409-2.175A8.1,8.1,0,0,0,209.1,296.032Z" transform="translate(-175.949 -254.005)" fill="#eddfd8"/>
      <path id="Path_33" data-name="Path 33" d="M132.339,399.179c.011-.014.024-.026.034-.039l0,0Z" transform="translate(-113.872 -343.439)" fill="#fff"/>
      <path id="Path_34" data-name="Path 34" d="M138.683,392.191c-.026.02-.348.261-.02.017l.02-.017Z" transform="translate(-119.188 -337.463)" fill="#fff"/>
      <path id="Path_35" data-name="Path 35" d="M132.526,398.416l0,0C132.586,398.341,132.681,398.206,132.526,398.416Z" transform="translate(-114.033 -342.723)" fill="#fff"/>
      <path id="Path_36" data-name="Path 36" d="M139.422,376.123s.339.24-.022-.025l.471-1.986-1.559-.659-1.086,1.72a4.791,4.791,0,0,0-1.449-.012l-1.077-1.74-1.564.632.444,1.987,0,0,0,0v0l-.02.015a4.814,4.814,0,0,0-.974.956l1.46,1.32a2.923,2.923,0,0,1,4.8,0l1.457-1.317A5.274,5.274,0,0,0,139.422,376.123Z" transform="translate(-114.084 -321.311)" fill="#eddfd8"/>
      <path id="Path_37" data-name="Path 37" d="M194.973,415.993c.061.419,0,0,0,0Z" transform="translate(-167.766 -357.943)" fill="#fff"/>
      <path id="Path_38" data-name="Path 38" d="M40.99,21.7a10.286,10.286,0,0,0,1.465-5.284c0-.026,0-.051,0-.077C42.463,6.073,44.623.367,44.623.367h-.5A29.447,29.447,0,0,0,31.76,3.03a16.061,16.061,0,0,0-18.786.006A29.448,29.448,0,0,0,.6.367H.1S2.257,6.073,2.268,16.339c0,.026,0,.051,0,.077A10.285,10.285,0,0,0,3.729,21.7c-9.133,11.6-.317,27.338,13.758,36.683q1.056.7,2.149,1.352,1.338.8,2.723,1.515h0c.93-.48,1.839-1,2.736-1.532q1.082-.645,2.129-1.337A49.935,49.935,0,0,0,35.2,51.834q.785-.8,1.52-1.622l-.024-.094a4.519,4.519,0,0,0,.487-.437l.033-.037a4.568,4.568,0,0,0,.4-.483h0q.713-.857,1.366-1.736C45.169,39.1,47.11,29.47,40.99,21.7ZM22.354,1.243a14.738,14.738,0,0,1,8.141,2.434c-.2.114-.42.218-.616.336a16.666,16.666,0,0,0-7.531,8.8,16.67,16.67,0,0,0-7.531-8.8c-.189-.114-.4-.214-.592-.322A14.79,14.79,0,0,1,22.354,1.243Zm2.479,29.936a3.026,3.026,0,0,1-1.372,1.127l0-.01a2.887,2.887,0,0,1-2.2,0l0,.009A3.058,3.058,0,0,1,19.6,30.645l.01,0,0-.012a13.27,13.27,0,0,1,5.505,0h0l0,.014.009,0a3.038,3.038,0,0,1-.289.532Zm-.925-4.161a13.075,13.075,0,0,1-1.553,1.413,13.072,13.072,0,0,1-1.545-1.409,5.456,5.456,0,0,1-1.723-3.329l.473-.572,2.8-3.385,2.8,3.389.47.569A5.445,5.445,0,0,1,23.909,27.018ZM9.529,24.155l-.726-.32a.484.484,0,0,1-.246-.636l.318-.7a.464.464,0,0,1,.136-.172A7.043,7.043,0,0,1,7.8,21.418a.47.47,0,0,1-.129.179l-.595.493a.492.492,0,0,1-.685-.059l-.511-.6a.482.482,0,0,1,.061-.679l.594-.492a.465.465,0,0,1,.2-.094,7.035,7.035,0,0,1-.7-1.339.492.492,0,0,1-.189.1l-.754.187a.489.489,0,0,1-.589-.353l-.191-.762a.482.482,0,0,1,.356-.584l.751-.186a.462.462,0,0,1,.214,0,6.9,6.9,0,0,1-.034-1.5.493.493,0,0,1-.207.005l-.757-.161A.482.482,0,0,1,4.258,15l.164-.77A.49.49,0,0,1,5,13.855l.759.16a.46.46,0,0,1,.177.077A6.871,6.871,0,0,1,6.51,12.83c.018-.031.039-.058.056-.089a.463.463,0,0,1-.169-.084l-.612-.472a.481.481,0,0,1-.083-.677l.49-.619a.487.487,0,0,1,.68-.083l.613.472a.516.516,0,0,1,.12.14,6.839,6.839,0,0,1,1.161-.943.489.489,0,0,1-.108-.14l-.341-.69A.484.484,0,0,1,8.543,9l.712-.344a.49.49,0,0,1,.651.221l.339.691a.424.424,0,0,1,.043.164,7.109,7.109,0,0,1,1.463-.339.477.477,0,0,1-.033-.162V8.464a.487.487,0,0,1,.487-.482H13a.485.485,0,0,1,.487.482v.768a.453.453,0,0,1-.031.15,6.844,6.844,0,0,1,.992.2.477.477,0,0,1,.03-.154l.29-.714a.49.49,0,0,1,.635-.265l.736.294a.483.483,0,0,1,.267.626l-.292.714a.477.477,0,0,1-.085.127c.042.022.084.04.126.063a7.173,7.173,0,0,1,1.11.788.452.452,0,0,1,.089-.12l.575-.514a.49.49,0,0,1,.685.036l.534.585a.479.479,0,0,1-.037.678l-.577.515a.507.507,0,0,1-.135.078,6.9,6.9,0,0,1,.726,1.3.459.459,0,0,1,.141-.072l.747-.214a.49.49,0,0,1,.6.332l.22.755a.487.487,0,0,1-.335.6l-.745.213a.535.535,0,0,1-.161.013,6.854,6.854,0,0,1,.071,1.488.444.444,0,0,1,.169-.005l.764.133a.486.486,0,0,1,.394.56l-.136.775a.493.493,0,0,1-.566.389l-.763-.134a.469.469,0,0,1-.162-.063,6.913,6.913,0,0,1-.592,1.369.456.456,0,0,1,.165.075l.627.449a.481.481,0,0,1,.108.673l-.467.637a.489.489,0,0,1-.678.106l-.628-.451a.491.491,0,0,1-.128-.139,7.052,7.052,0,0,1-1.14.971.47.47,0,0,1,.127.151l.365.677a.484.484,0,0,1-.2.652l-.7.369a.491.491,0,0,1-.657-.2l-.365-.68a.449.449,0,0,1-.053-.191,7.087,7.087,0,0,1-1.462.38.455.455,0,0,1,.054.2l.028.769a.484.484,0,0,1-.47.5l-.79.03a.488.488,0,0,1-.5-.466l-.028-.769a.472.472,0,0,1,.047-.208A7.062,7.062,0,0,1,10.524,23a.457.457,0,0,1-.037.212l-.316.7A.491.491,0,0,1,9.529,24.155Zm17.679,33.9h0S27.268,58.47,27.207,58.051ZM34.22,41.994a12.972,12.972,0,0,1-.409,2.175,18.217,18.217,0,0,1-1.637,3.937c-.361.655-.755,1.295-1.17,1.915a37.76,37.76,0,0,1-4.633,5.542l-.152.137-1.457,1.317-.008.007c-1.392,1.264-2.371,2-2.394,2.02l0,0h-.009l0,0c-.023-.017-1-.756-2.394-2.02l0,0L18.5,55.7c-.011.014-.024.025-.034.039l.03-.043,0,0-.144-.13c-3.46-3.458-7.9-9-7.9-14.658a10.614,10.614,0,0,1,5.4-8.789,6.969,6.969,0,0,0,.63,1.237h0l1.237-.3a5.752,5.752,0,0,0,1.21,1.194l-.28,1.241h0c.064.04.13.072.2.11.118.069.235.139.356.2.028.014.058.026.087.039.163.08.327.155.494.221h0a7.033,7.033,0,0,0,1.111.339l.665-1.086a5.767,5.767,0,0,0,1.7-.013l.679,1.076a6.978,6.978,0,0,0,2.235-.943v0h0l-.3-1.237a5.751,5.751,0,0,0,1.194-1.21l1.241.28h0c.039-.063.071-.128.108-.192.07-.119.141-.238.2-.36.014-.027.025-.056.038-.084.08-.164.156-.329.222-.5l0,0h0l0-.009a10.613,10.613,0,0,1,5.391,8.784C34.274,41.269,34.255,41.632,34.22,41.994Zm6.108-23.8a.492.492,0,0,1-.566.39L39,18.447a.482.482,0,0,1-.163-.064,6.867,6.867,0,0,1-.592,1.369.455.455,0,0,1,.164.076l.628.448a.481.481,0,0,1,.108.673l-.466.638a.49.49,0,0,1-.679.105l-.628-.45a.509.509,0,0,1-.128-.14,6.974,6.974,0,0,1-1.14.972.471.471,0,0,1,.128.151l.365.677a.485.485,0,0,1-.2.653l-.7.369a.492.492,0,0,1-.658-.2l-.364-.68a.44.44,0,0,1-.053-.191,7.05,7.05,0,0,1-1.463.38.481.481,0,0,1,.054.2l.028.77a.484.484,0,0,1-.471.495l-.79.03a.486.486,0,0,1-.5-.466l-.028-.769a.463.463,0,0,1,.046-.208A7.013,7.013,0,0,1,30,23a.456.456,0,0,1-.037.212l-.316.7a.49.49,0,0,1-.642.244l-.726-.319a.485.485,0,0,1-.246-.636l.318-.7a.471.471,0,0,1,.136-.172,6.986,6.986,0,0,1-1.214-.908.484.484,0,0,1-.129.179l-.595.493a.492.492,0,0,1-.685-.06l-.511-.6a.481.481,0,0,1,.061-.678l.594-.493a.475.475,0,0,1,.2-.094,7.026,7.026,0,0,1-.7-1.339.49.49,0,0,1-.189.1l-.754.187a.489.489,0,0,1-.589-.353l-.191-.762a.482.482,0,0,1,.356-.583l.751-.187a.473.473,0,0,1,.214,0,6.9,6.9,0,0,1-.034-1.5.48.48,0,0,1-.207,0l-.757-.16a.483.483,0,0,1-.375-.572l.164-.77a.488.488,0,0,1,.578-.37l.759.159a.463.463,0,0,1,.177.076,6.926,6.926,0,0,1,.574-1.262c.018-.031.039-.058.056-.088a.481.481,0,0,1-.169-.085l-.612-.472a.482.482,0,0,1-.083-.677l.49-.619a.488.488,0,0,1,.68-.083l.613.472a.529.529,0,0,1,.121.139,6.886,6.886,0,0,1,1.161-.942.48.48,0,0,1-.109-.14l-.341-.69A.485.485,0,0,1,28.019,9l.712-.344a.49.49,0,0,1,.651.222l.339.69a.426.426,0,0,1,.043.164,7.215,7.215,0,0,1,1.464-.339.449.449,0,0,1-.033-.161V8.464a.485.485,0,0,1,.486-.482h.792a.484.484,0,0,1,.486.482v.768a.46.46,0,0,1-.03.15,6.807,6.807,0,0,1,.991.2.461.461,0,0,1,.031-.154l.289-.713a.491.491,0,0,1,.635-.264l.736.293a.484.484,0,0,1,.267.627l-.292.714a.5.5,0,0,1-.085.127c.041.022.083.04.126.063a7.211,7.211,0,0,1,1.109.788.483.483,0,0,1,.089-.121l.576-.514a.49.49,0,0,1,.685.037l.535.585a.48.48,0,0,1-.037.678l-.577.515a.551.551,0,0,1-.136.078,6.9,6.9,0,0,1,.726,1.3.493.493,0,0,1,.142-.072l.746-.214a.492.492,0,0,1,.6.332l.22.755a.485.485,0,0,1-.334.595l-.746.214a.508.508,0,0,1-.161.012,6.872,6.872,0,0,1,.072,1.488.46.46,0,0,1,.169-.005l.764.133a.486.486,0,0,1,.393.56Z" transform="translate(0 0)" fill="#eddfd8"/>
    </g>
  </g>
</svg>
